<?xml version="1.0" encoding="UTF-8"?>
<svg xmlns="http://www.w3.org/2000/svg" xmlns:xlink="http://www.w3.org/1999/xlink" width="20px" height="20px" viewBox="0 0 15 15" version="1.1">
<g id="surface1">
<path style=" stroke:none;fill-rule:nonzero;fill:rgb(0%,0%,0%);fill-opacity:1;" d="M 8.828125 7.5 L 14.726562 1.601562 C 15.089844 1.234375 15.089844 0.640625 14.726562 0.273438 C 14.359375 -0.0898438 13.765625 -0.0898438 13.398438 0.273438 L 7.5 6.171875 L 1.601562 0.273438 C 1.234375 -0.0898438 0.640625 -0.0898438 0.273438 0.273438 C -0.0898438 0.640625 -0.0898438 1.234375 0.273438 1.601562 L 6.171875 7.5 L 0.273438 13.398438 C -0.0898438 13.765625 -0.0898438 14.359375 0.273438 14.726562 C 0.457031 14.90625 0.699219 15 0.9375 15 C 1.179688 15 1.417969 14.90625 1.601562 14.726562 L 7.5 8.828125 L 13.398438 14.726562 C 13.582031 14.90625 13.820312 15 14.0625 15 C 14.300781 15 14.542969 14.90625 14.726562 14.726562 C 15.089844 14.359375 15.089844 13.765625 14.726562 13.398438 Z M 8.828125 7.5 "/>
</g>
</svg>
